<?xml version="1.0" standalone="no"?>
<!DOCTYPE svg PUBLIC "-//W3C//DTD SVG 20010904//EN"
 "http://www.w3.org/TR/2001/REC-SVG-20010904/DTD/svg10.dtd">
<svg version="1.0" xmlns="http://www.w3.org/2000/svg"
 width="120.000000pt" height="120.000000pt" viewBox="0 0 120.000000 120.000000"
 preserveAspectRatio="xMidYMid meet">
<metadata>
Created by potrace 1.14, written by Peter Selinger 2001-2017
</metadata>
<g transform="translate(0.000000,120.000000) scale(0.100000,-0.100000)"
fill="#000000" stroke="none">
<path d="M392 1152 c-4 -9 -7 -232 -6 -495 0 -263 -2 -480 -6 -482 -18 -11
-110 115 -125 170 -15 54 -15 59 -16 120 0 90 31 167 96 240 34 38 49 95 25
95 -18 0 -86 -72 -118 -125 -34 -55 -69 -173 -67 -220 11 -202 152 -368 346
-408 132 -27 275 17 373 116 63 62 93 116 115 207 26 101 17 168 -37 279 -26
55 -110 151 -131 151 -25 0 -10 -57 25 -96 128 -140 127 -353 -4 -493 -21 -22
-41 -41 -44 -41 -3 0 -5 72 -5 161 0 88 -4 164 -9 169 -12 11 -105 60 -115 60
-4 0 -7 -73 -7 -162 -1 -266 -2 -302 -9 -294 -4 4 -8 161 -8 349 l0 342 -55
32 c-30 18 -59 32 -65 30 -7 -3 -10 -129 -10 -375 0 -203 -3 -374 -8 -378 -9
-9 -8 -57 -9 496 0 261 -2 483 -5 493 -2 9 -9 17 -15 17 -5 0 -30 13 -54 30
-39 26 -45 27 -52 12z"/>
</g>
</svg>
